<?xml version="1.0" standalone="no"?>
<!DOCTYPE svg PUBLIC "-//W3C//DTD SVG 20010904//EN"
 "http://www.w3.org/TR/2001/REC-SVG-20010904/DTD/svg10.dtd">
<svg version="1.0" xmlns="http://www.w3.org/2000/svg"
 width="256.000000pt" height="256.000000pt" viewBox="0 0 256.000000 256.000000"
 preserveAspectRatio="xMidYMid meet">
<metadata>
Created by potrace 1.11, written by Peter Selinger 2001-2013
</metadata>
<g transform="translate(0.000000,256.000000) scale(0.100000,-0.100000)"
fill="#000000" stroke="none">
<path d="M309 1837 l-307 -532 309 -3 c170 -1 448 -1 617 0 l308 3 -302 524
c-166 288 -306 527 -311 531 -4 5 -146 -231 -314 -523z m423 2 c35 -26 68 -88
68 -130 0 -18 8 -41 17 -52 27 -29 23 -94 -7 -121 -14 -11 -33 -34 -43 -49
-20 -31 -99 -72 -123 -63 -28 11 -9 31 29 31 27 1 45 8 64 28 15 15 22 27 15
27 -9 0 -12 26 -12 90 0 73 3 90 15 90 20 0 19 33 -1 76 -46 96 -198 103 -253
12 -17 -26 -18 -45 -14 -149 5 -104 4 -119 -10 -119 -28 0 -67 43 -73 81 -5
28 -1 41 19 65 13 16 26 48 30 72 6 46 43 104 80 124 57 31 145 25 199 -13z"/>
<path d="M692 2312 c378 -662 584 -1010 594 -999 6 7 134 226 284 487 151 261
286 496 302 523 l27 47 -620 0 -620 0 33 -58z m994 -229 c-78 -137 -198 -345
-266 -463 -68 -118 -128 -220 -134 -227 -10 -10 -212 330 -524 879 l-33 58
550 0 550 0 -143 -247z"/>
<path d="M1226 2188 c-21 -30 -20 -50 4 -81 12 -15 20 -40 20 -65 0 -41 16
-57 45 -46 10 4 15 20 15 49 0 26 6 47 15 55 20 16 19 74 -1 94 -24 24 -80 20
-98 -6z"/>
<path d="M1134 2003 l-47 -58 97 -3 c53 -1 139 -1 191 0 l95 3 -46 58 c-33 41
-52 57 -70 57 -21 0 -24 -5 -24 -35 0 -44 -34 -65 -75 -47 -20 9 -25 19 -25
47 0 30 -3 35 -24 35 -18 0 -38 -16 -72 -57z"/>
<path d="M1080 1883 c0 -53 2 -54 201 -51 l184 3 3 38 3 37 -195 0 -196 0 0
-27z"/>
<path d="M1660 1893 c-151 -262 -290 -503 -308 -535 l-33 -58 619 0 620 0
-305 528 c-167 290 -307 530 -311 534 -4 4 -131 -207 -282 -469z m414 -9 c14
-5 16 -35 16 -234 0 -199 -2 -229 -16 -234 -30 -12 -269 -7 -282 6 -17 17 -17
439 0 456 13 13 252 18 282 6z"/>
<path d="M1820 1740 l0 -100 115 0 115 0 0 100 0 100 -115 0 -115 0 0 -100z"/>
<path d="M1860 1570 c0 -13 -7 -20 -20 -20 -11 0 -20 -5 -20 -11 0 -6 9 -13
20 -16 11 -3 20 -12 20 -19 0 -8 5 -14 10 -14 6 0 10 6 10 14 0 7 9 16 20 19
11 3 20 10 20 16 0 6 -9 11 -20 11 -13 0 -20 7 -20 20 0 11 -4 20 -10 20 -5 0
-10 -9 -10 -20z"/>
<path d="M2022 1563 c2 -10 10 -18 18 -18 8 0 16 8 18 18 2 12 -3 17 -18 17
-15 0 -20 -5 -18 -17z"/>
<path d="M1973 1524 c-8 -21 13 -42 28 -27 13 13 5 43 -11 43 -6 0 -13 -7 -17
-16z"/>
<path d="M27 1212 c488 -850 589 -1019 599 -1009 6 7 82 136 169 287 87 151
223 386 301 523 l143 247 -620 0 -619 0 27 -48z m1131 -14 c-8 -13 -129 -221
-268 -463 -139 -242 -258 -445 -264 -452 -10 -10 -136 201 -529 889 l-27 48
551 0 551 0 -14 -22z"/>
<path d="M372 1004 c-19 -13 -22 -24 -22 -93 0 -46 5 -82 12 -89 17 -17 499
-17 516 0 7 7 12 43 12 89 0 112 8 109 -270 109 -188 0 -229 -3 -248 -16z m88
-89 c0 -8 9 -15 20 -15 11 0 20 -4 20 -9 0 -5 -9 -11 -20 -14 -11 -3 -20 -12
-20 -21 0 -9 -4 -16 -10 -16 -5 0 -10 9 -10 20 0 11 -7 20 -15 20 -8 0 -15 5
-15 10 0 6 7 10 15 10 8 0 15 7 15 15 0 8 5 15 10 15 6 0 10 -7 10 -15z m280
-50 c0 -8 -4 -15 -9 -15 -13 0 -22 16 -14 24 11 11 23 6 23 -9z m72 0 c0 -5
-5 -11 -11 -13 -6 -2 -11 4 -11 13 0 9 5 15 11 13 6 -2 11 -8 11 -13z m-165
-1 c-3 -3 -12 -4 -19 -1 -8 3 -5 6 6 6 11 1 17 -2 13 -5z"/>
<path d="M968 727 l-307 -532 310 -3 c170 -1 448 -1 617 0 l308 3 -303 524
c-166 288 -306 528 -310 532 -4 4 -146 -232 -315 -524z m262 -37 c0 -68 3 -83
20 -97 15 -13 20 -30 20 -65 0 -27 5 -48 10 -48 6 0 10 21 10 46 0 31 7 54 20
71 16 20 20 41 20 99 0 41 3 74 8 74 26 0 76 -46 94 -87 17 -39 20 -62 17
-158 -4 -104 -6 -114 -32 -148 -37 -49 -75 -67 -140 -67 -62 0 -108 25 -144
79 -21 30 -23 46 -23 148 0 130 11 166 61 206 54 42 59 37 59 -53z m68 6 c-4
-50 -33 -64 -44 -21 -9 35 10 77 31 69 12 -5 15 -17 13 -48z"/>
<path d="M1352 1202 c231 -407 585 -1009 590 -1004 4 4 144 244 311 535 l305
527 -620 0 -619 0 33 -58z m1104 -39 c-19 -32 -140 -242 -271 -468 -130 -226
-239 -413 -243 -417 -6 -5 -291 478 -520 883 l-34 59 551 0 550 0 -33 -57z"/>
<path d="M1817 1143 c-4 -3 -7 -109 -7 -234 0 -198 2 -228 16 -233 30 -11 219
-7 232 6 17 17 17 439 0 456 -13 13 -229 18 -241 5z m233 -223 l0 -170 -110 0
-110 0 0 170 0 170 110 0 110 0 0 -170z m-100 -205 c0 -8 -4 -15 -9 -15 -13 0
-22 16 -14 24 11 11 23 6 23 -9z"/>
</g>
</svg>
